<?xml version="1.0" encoding="utf-8"?>
<!-- Generator: Adobe Illustrator 19.2.1, SVG Export Plug-In . SVG Version: 6.00 Build 0)  -->
<svg version="1.1" id="Layer_1" xmlns="http://www.w3.org/2000/svg" xmlns:xlink="http://www.w3.org/1999/xlink" x="0px" y="0px"
	 viewBox="0 0 84 150" style="enable-background:new 0 0 84 150;" xml:space="preserve">
<style type="text/css">
	.st0{fill:#7C634F;}
	.st1{fill:#D0D2D3;}
	.st2{fill:#6ECAF3;}
	.st3{fill:#CED0D1;}
	.st4{fill:#F6CC78;}
	.st5{fill:#BBBDBF;}
	.st6{fill:#58595B;}
	.st7{fill:#FFB4D3;}
	.st8{fill:#A6A8AB;}
	.st9{opacity:0.2;fill:#FFFFFF;}
	.st10{fill:#4F3E31;}
	.st11{fill:#EBEBEC;}
	.st12{fill:#E0E1E2;}
	.st13{fill:#D1D2D4;}
	.st14{fill:#534235;}
	.st15{fill:#4A3A2E;}
	.st16{fill:#F8C1D9;}
	.st17{fill:#FFFFFF;}
	.st18{fill:#E4E5E6;}
	.st19{fill:#836854;}
	.st20{fill:#745D4A;}
	.st21{fill:#F3A5C8;}
	.st22{fill:#66493C;}
	.st23{fill:#6F5043;}
	.st24{fill:#4C3C34;}
	.st25{fill:#F4F4F6;}
	.st26{fill:#F8F8F9;}
	.st27{fill:#EBEBEE;}
	.st28{fill:#DFDFE0;}
	.st29{fill:#86888A;}
	.st30{fill:#A54B94;}
	.st31{fill:#D4BC9B;}
	.st32{fill:#A55498;}
	.st33{fill:#D3A561;}
	.st34{fill:#C7B192;}
	.st35{fill:#DCC6A9;}
	.st36{fill:#D3AD72;}
	.st37{fill:#CAB4FF;}
	.st38{fill:#C6A9FF;}
	.st39{fill:#765C60;}
	.st40{fill:#864481;}
	.st41{fill:#AE8950;}
	.st42{fill:#AA8CE1;}
	.st43{fill:#846255;}
	.st44{fill:#6AAB98;}
	.st45{fill:#F5887A;}
	.st46{fill:#8C685B;}
	.st47{fill:#77584D;}
	.st48{fill:#F69788;}
	.st49{fill:#E07D70;}
	.st50{fill:#7CB0A7;}
	.st51{fill:#619E8D;}
	.st52{fill:#70524E;}
	.st53{fill:#A78AF2;}
	.st54{fill:#50DB7E;}
	.st55{fill:#FBC2F2;}
	.st56{fill:#ECF4F9;}
	.st57{fill:#987EE7;}
	.st58{fill:#FBB0F2;}
	.st59{fill:#AC92FF;}
	.st60{fill:#5C76AA;}
	.st61{fill:#00B8ED;}
	.st62{fill:#EFEFF0;}
	.st63{fill:#CDAA6F;}
	.st64{fill:#5E8664;}
	.st65{fill:#644F3B;}
	.st66{fill:#785E47;}
	.st67{fill:#5C4936;}
	.st68{fill:#6A533E;}
	.st69{fill:#80654D;}
	.st70{fill:#544835;}
	.st71{fill:#D8468E;}
	.st72{fill:#5AD83F;}
	.st73{fill:#47C93F;}
	.st74{fill:#1CB14B;}
	.st75{fill:#D1FF25;}
	.st76{fill:#FF86B5;}
	.st77{fill:#F086B5;}
	.st78{fill:#F0F1F1;}
	.st79{fill:#F580B5;}
	.st80{fill:#E5E6E7;}
	.st81{fill:#E67CAD;}
	.st82{fill:#D46CAD;}
	.st83{fill:#796F6C;}
	.st84{fill:#0E86FE;}
	.st85{fill:#C93131;}
	.st86{fill:#B83131;}
	.st87{fill:#E5E5E5;}
	.st88{fill:#0E7FFB;}
	.st89{fill:#DBDCDD;}
	.st90{fill:none;stroke:#8D382D;stroke-width:4;stroke-linecap:round;stroke-linejoin:round;stroke-miterlimit:10;}
	.st91{fill:none;stroke:#0E6CFE;stroke-width:4;stroke-linecap:round;stroke-linejoin:round;stroke-miterlimit:10;}
	.st92{fill:none;stroke:#BBBDBF;stroke-width:4;stroke-linecap:round;stroke-linejoin:round;stroke-miterlimit:10;}
	.st93{fill:none;stroke:#A6A8AB;stroke-width:4;stroke-linecap:round;stroke-linejoin:round;stroke-miterlimit:10;}
	.st94{fill:#701F2F;}
	.st95{fill:#1C3B71;}
	.st96{fill:#214181;}
	.st97{fill:#621221;}
	.st98{fill:#231F20;}
	.st99{fill:#31DCFF;}
	.st100{fill:#80192B;}
	.st101{fill:#80994A;}
	.st102{fill:#6B192B;}
	.st103{fill:#5E7031;}
	.st104{fill:#58192B;}
</style>
<g>
	<path class="st17" d="M81.08,14.87c-6.732-0.923-11.808-6.525-12.069-13.324c-0.021-0.509-0.345-0.946-0.823-1.113
		c-0.476-0.167-0.997-0.027-1.327,0.355L65.4,2.473l-1.714-1.978C63.463,0.239,63.14,0.092,62.8,0.092c-0.001,0-0.003,0-0.004,0
		c-0.341,0.001-0.664,0.15-0.884,0.406L60.2,2.473l-1.714-1.978c-0.224-0.256-0.547-0.403-0.887-0.403c-0.001,0-0.003,0-0.004,0
		c-0.341,0.001-0.664,0.15-0.884,0.406L55,2.473L53.29,0.5c-0.222-0.258-0.545-0.407-0.886-0.408c-0.001,0-0.003,0-0.004,0
		c-0.34,0-0.663,0.147-0.889,0.406L49.8,2.473L48.09,0.5c-0.222-0.258-0.545-0.407-0.886-0.408c-0.001,0-0.003,0-0.004,0
		c-0.34,0-0.663,0.147-0.889,0.406L44.6,2.473l-1.713-1.978c-0.447-0.512-1.324-0.515-1.775,0.003L39.4,2.473l-1.714-1.978
		C37.463,0.239,37.14,0.092,36.8,0.092c-0.001,0-0.003,0-0.004,0c-0.341,0.001-0.664,0.15-0.884,0.406L34.2,2.473l-1.714-1.978
		c-0.224-0.256-0.547-0.403-0.887-0.403c-0.001,0-0.003,0-0.004,0c-0.341,0.001-0.664,0.15-0.884,0.406L29,2.473L27.29,0.5
		c-0.222-0.258-0.545-0.407-0.886-0.408c-0.001,0-0.003,0-0.004,0c-0.34,0-0.663,0.147-0.889,0.406L23.8,2.473L22.09,0.5
		c-0.222-0.258-0.545-0.407-0.886-0.408c-0.001,0-0.003,0-0.004,0c-0.34,0-0.663,0.147-0.889,0.406L18.6,2.473l-1.46-1.685
		c-0.33-0.382-0.852-0.521-1.327-0.355c-0.479,0.167-0.802,0.604-0.823,1.117C14.728,8.345,9.652,13.947,2.92,14.87
		C1.255,15.098,0,16.569,0,18.291v113.417c0,1.723,1.255,3.193,2.92,3.423c6.732,0.922,11.808,6.523,12.069,13.323
		c0.021,0.51,0.345,0.946,0.823,1.113c0.133,0.047,0.27,0.069,0.404,0.069c0.348,0,0.685-0.15,0.923-0.425l1.46-1.685l1.712,1.975
		c0.225,0.258,0.548,0.405,0.889,0.405c0.001,0,0.003,0,0.004,0c0.342-0.001,0.666-0.15,0.884-0.405l1.712-1.975l1.712,1.975
		c0.225,0.258,0.548,0.405,0.889,0.405c0.001,0,0.003,0,0.004,0c0.342-0.001,0.666-0.15,0.884-0.405L29,147.528l1.708,1.97
		c0.222,0.26,0.546,0.409,0.888,0.41c0.001,0,0.003,0,0.004,0c0.341,0,0.664-0.147,0.889-0.405l1.712-1.975l1.708,1.97
		c0.222,0.26,0.546,0.409,0.888,0.41c0.001,0,0.003,0,0.004,0c0.341,0,0.664-0.147,0.889-0.405l1.712-1.975l1.711,1.975
		c0.224,0.258,0.548,0.405,0.889,0.405s0.665-0.147,0.889-0.405l1.711-1.975l1.712,1.975c0.225,0.258,0.548,0.405,0.889,0.405
		c0.001,0,0.003,0,0.004,0c0.342-0.001,0.666-0.15,0.884-0.405l1.712-1.975l1.712,1.975c0.225,0.258,0.548,0.405,0.889,0.405
		c0.001,0,0.003,0,0.004,0c0.342-0.001,0.666-0.15,0.884-0.405L55,147.528l1.708,1.97c0.222,0.26,0.546,0.409,0.888,0.41
		c0.001,0,0.003,0,0.004,0c0.341,0,0.664-0.147,0.889-0.405l1.712-1.975l1.708,1.97c0.222,0.26,0.546,0.409,0.888,0.41
		c0.001,0,0.003,0,0.004,0c0.341,0,0.664-0.147,0.889-0.405l1.712-1.975l1.459,1.684c0.239,0.275,0.576,0.426,0.924,0.426
		c0.135,0,0.271-0.022,0.404-0.069c0.479-0.167,0.802-0.604,0.823-1.117c0.262-6.796,5.337-12.397,12.069-13.32
		c1.665-0.229,2.92-1.699,2.92-3.422V18.291C84,16.569,82.745,15.098,81.08,14.87z M82,131.708c0,0.729-0.513,1.348-1.191,1.44
		c-7.08,0.971-12.558,6.468-13.621,13.387l-1.031-1.19c-0.016-0.019-0.039-0.026-0.057-0.044c-0.017-0.017-0.025-0.041-0.044-0.057
		c-0.034-0.03-0.077-0.04-0.114-0.065c-0.056-0.037-0.109-0.072-0.17-0.096c-0.061-0.025-0.122-0.038-0.186-0.05
		c-0.062-0.012-0.122-0.023-0.186-0.023c-0.064,0-0.124,0.011-0.186,0.023c-0.064,0.012-0.125,0.025-0.186,0.05
		c-0.061,0.024-0.114,0.059-0.17,0.096c-0.037,0.024-0.08,0.035-0.114,0.065c-0.019,0.016-0.027,0.04-0.044,0.057
		c-0.017,0.017-0.04,0.025-0.057,0.044l-1.844,2.128l-1.845-2.128c-0.016-0.019-0.039-0.026-0.057-0.044
		c-0.017-0.017-0.025-0.041-0.044-0.057c-0.034-0.03-0.077-0.04-0.114-0.065c-0.056-0.037-0.109-0.072-0.17-0.096
		c-0.061-0.025-0.122-0.038-0.186-0.05c-0.062-0.012-0.122-0.023-0.186-0.023c-0.064,0-0.124,0.011-0.186,0.023
		c-0.064,0.012-0.125,0.025-0.186,0.05c-0.061,0.024-0.114,0.059-0.17,0.096c-0.037,0.024-0.08,0.035-0.114,0.065
		c-0.019,0.016-0.027,0.04-0.044,0.057c-0.017,0.017-0.04,0.025-0.057,0.044l-1.844,2.128l-1.845-2.128
		c-0.016-0.019-0.039-0.026-0.057-0.044c-0.017-0.017-0.025-0.041-0.044-0.057c-0.034-0.03-0.077-0.04-0.114-0.064
		c-0.056-0.037-0.109-0.072-0.17-0.096c-0.061-0.025-0.121-0.038-0.185-0.05c-0.063-0.012-0.123-0.023-0.187-0.023
		c-0.064,0-0.124,0.011-0.187,0.023c-0.063,0.012-0.124,0.025-0.185,0.05c-0.061,0.025-0.115,0.06-0.171,0.096
		c-0.037,0.024-0.079,0.035-0.114,0.064c-0.019,0.016-0.027,0.04-0.044,0.057c-0.017,0.017-0.04,0.025-0.057,0.044l-1.844,2.128
		l-1.845-2.128c-0.016-0.019-0.039-0.026-0.057-0.044c-0.017-0.017-0.025-0.041-0.044-0.057c-0.034-0.03-0.077-0.04-0.114-0.064
		c-0.056-0.037-0.109-0.072-0.17-0.096c-0.061-0.025-0.121-0.038-0.185-0.05c-0.063-0.012-0.123-0.023-0.187-0.023
		c-0.064,0-0.124,0.011-0.187,0.023c-0.063,0.012-0.124,0.025-0.185,0.05c-0.061,0.024-0.114,0.059-0.17,0.096
		c-0.037,0.024-0.08,0.035-0.114,0.064c-0.019,0.016-0.027,0.039-0.044,0.057c-0.017,0.017-0.04,0.025-0.057,0.044l-1.844,2.128
		l-1.845-2.128c-0.016-0.019-0.039-0.026-0.057-0.043c-0.017-0.018-0.025-0.041-0.044-0.057c-0.034-0.03-0.077-0.04-0.114-0.065
		c-0.056-0.037-0.109-0.072-0.17-0.096c-0.061-0.025-0.122-0.038-0.186-0.05c-0.062-0.012-0.122-0.023-0.186-0.023
		c-0.064,0-0.124,0.011-0.186,0.023c-0.064,0.012-0.125,0.025-0.186,0.05c-0.061,0.024-0.114,0.059-0.17,0.096
		c-0.037,0.024-0.08,0.035-0.114,0.065c-0.019,0.016-0.027,0.04-0.044,0.057c-0.017,0.017-0.04,0.025-0.057,0.044L42,147.473
		l-1.844-2.128c-0.016-0.019-0.039-0.026-0.057-0.044c-0.017-0.017-0.025-0.041-0.044-0.057c-0.034-0.03-0.077-0.04-0.114-0.065
		c-0.056-0.037-0.109-0.072-0.17-0.096c-0.061-0.025-0.122-0.038-0.186-0.05c-0.062-0.012-0.122-0.023-0.186-0.023
		c-0.064,0-0.124,0.011-0.186,0.023c-0.064,0.012-0.125,0.025-0.186,0.05c-0.061,0.024-0.114,0.059-0.17,0.096
		c-0.037,0.024-0.08,0.035-0.114,0.065c-0.019,0.016-0.027,0.04-0.044,0.057c-0.018,0.017-0.04,0.025-0.057,0.043l-1.844,2.128
		l-1.845-2.128c-0.016-0.019-0.039-0.026-0.057-0.044c-0.017-0.017-0.025-0.041-0.044-0.057c-0.034-0.03-0.077-0.04-0.114-0.064
		c-0.056-0.037-0.109-0.072-0.17-0.096c-0.061-0.025-0.121-0.038-0.185-0.05c-0.063-0.012-0.123-0.023-0.187-0.023
		c-0.064,0-0.124,0.011-0.187,0.023c-0.063,0.012-0.124,0.025-0.185,0.05c-0.061,0.025-0.115,0.06-0.171,0.096
		c-0.037,0.024-0.079,0.035-0.114,0.064c-0.019,0.016-0.027,0.04-0.044,0.057c-0.017,0.017-0.04,0.025-0.057,0.044l-1.844,2.128
		l-1.845-2.128c-0.016-0.019-0.039-0.026-0.057-0.044c-0.017-0.017-0.025-0.041-0.044-0.057c-0.034-0.03-0.077-0.04-0.114-0.064
		c-0.056-0.037-0.109-0.072-0.17-0.096c-0.061-0.025-0.121-0.038-0.185-0.05c-0.063-0.012-0.123-0.023-0.187-0.023
		c-0.064,0-0.124,0.011-0.187,0.023c-0.063,0.012-0.124,0.025-0.185,0.05c-0.061,0.024-0.114,0.059-0.17,0.096
		c-0.037,0.024-0.08,0.035-0.114,0.064c-0.019,0.016-0.027,0.039-0.044,0.057c-0.017,0.017-0.04,0.025-0.057,0.044l-1.844,2.128
		l-1.845-2.128c-0.016-0.019-0.039-0.026-0.057-0.044c-0.017-0.017-0.025-0.041-0.044-0.057c-0.034-0.03-0.077-0.04-0.114-0.065
		c-0.056-0.037-0.109-0.072-0.17-0.096c-0.061-0.025-0.122-0.038-0.186-0.05c-0.062-0.012-0.122-0.023-0.186-0.023
		c-0.064,0-0.124,0.011-0.186,0.023c-0.064,0.012-0.125,0.025-0.186,0.05c-0.061,0.024-0.114,0.059-0.17,0.096
		c-0.037,0.024-0.08,0.035-0.114,0.065c-0.019,0.016-0.027,0.04-0.044,0.057c-0.017,0.017-0.04,0.025-0.057,0.044l-1.844,2.128
		l-1.845-2.128c-0.016-0.019-0.039-0.026-0.057-0.044c-0.017-0.017-0.025-0.041-0.044-0.057c-0.034-0.03-0.077-0.04-0.114-0.065
		c-0.056-0.037-0.109-0.072-0.17-0.096c-0.061-0.025-0.122-0.038-0.186-0.05c-0.062-0.012-0.122-0.023-0.186-0.023
		c-0.064,0-0.124,0.011-0.186,0.023c-0.064,0.012-0.125,0.025-0.186,0.05c-0.061,0.024-0.114,0.059-0.17,0.096
		c-0.037,0.024-0.08,0.035-0.114,0.065c-0.019,0.016-0.027,0.04-0.044,0.057c-0.017,0.017-0.04,0.025-0.057,0.044l-1.032,1.191
		c-1.063-6.921-6.541-12.418-13.62-13.387C2.513,133.056,2,132.437,2,131.708V18.291c0-0.728,0.513-1.347,1.191-1.44
		c7.08-0.97,12.558-6.468,13.621-13.387l1.031,1.191c0.016,0.019,0.039,0.026,0.056,0.043c0.018,0.018,0.025,0.041,0.045,0.058
		c0.034,0.029,0.076,0.04,0.113,0.064c0.056,0.037,0.111,0.073,0.172,0.097c0.06,0.024,0.119,0.037,0.181,0.049
		c0.063,0.012,0.124,0.023,0.188,0.023s0.125-0.011,0.188-0.023c0.062-0.012,0.122-0.025,0.181-0.049
		c0.062-0.025,0.116-0.06,0.172-0.097c0.037-0.024,0.079-0.034,0.113-0.064c0.019-0.017,0.027-0.04,0.045-0.058
		c0.017-0.017,0.04-0.025,0.056-0.043l1.844-2.128l1.845,2.128c0.015,0.017,0.037,0.023,0.053,0.039
		c0.019,0.019,0.027,0.044,0.048,0.062c0.044,0.038,0.099,0.054,0.147,0.083c0.051,0.03,0.096,0.064,0.15,0.085
		c0.076,0.029,0.154,0.04,0.233,0.05C23.718,4.979,23.757,5,23.8,5c0.013,0,0.025-0.006,0.038-0.007
		c0.048-0.002,0.093-0.016,0.14-0.025c0.073-0.013,0.145-0.028,0.214-0.057c0.048-0.021,0.09-0.051,0.135-0.08
		c0.042-0.027,0.089-0.042,0.128-0.076c0.019-0.017,0.027-0.04,0.045-0.058c0.017-0.017,0.04-0.025,0.056-0.043l1.844-2.128
		l1.845,2.128c0.015,0.017,0.037,0.023,0.053,0.039c0.019,0.019,0.027,0.044,0.048,0.062c0.044,0.038,0.099,0.054,0.147,0.083
		c0.051,0.03,0.096,0.064,0.15,0.085c0.076,0.029,0.154,0.04,0.233,0.05C28.918,4.979,28.958,5,29,5
		c0.013,0,0.025-0.006,0.038-0.007c0.048-0.002,0.093-0.016,0.14-0.025c0.073-0.013,0.145-0.028,0.214-0.057
		c0.048-0.021,0.09-0.051,0.135-0.08c0.042-0.027,0.089-0.042,0.128-0.076c0.019-0.017,0.027-0.04,0.045-0.058
		c0.017-0.017,0.04-0.025,0.056-0.043L31.6,2.527l1.845,2.128c0.015,0.017,0.037,0.023,0.053,0.039
		c0.019,0.019,0.027,0.044,0.048,0.062c0.044,0.038,0.098,0.054,0.147,0.083c0.051,0.031,0.097,0.065,0.152,0.085
		c0.076,0.029,0.153,0.039,0.232,0.049C34.118,4.979,34.157,5,34.2,5c0.013,0,0.025-0.006,0.038-0.007
		c0.048-0.002,0.093-0.016,0.14-0.025c0.073-0.013,0.144-0.028,0.213-0.057c0.049-0.021,0.091-0.051,0.136-0.08
		c0.042-0.027,0.089-0.042,0.128-0.075c0.019-0.017,0.027-0.04,0.045-0.058c0.017-0.017,0.04-0.025,0.056-0.043L36.8,2.527
		l1.845,2.128c0.015,0.017,0.037,0.023,0.053,0.039c0.019,0.019,0.027,0.044,0.048,0.062c0.044,0.039,0.099,0.054,0.147,0.083
		c0.05,0.03,0.096,0.064,0.15,0.085c0.076,0.029,0.153,0.039,0.232,0.049C39.317,4.979,39.357,5,39.4,5
		c0.013,0,0.026-0.006,0.039-0.007c0.046-0.002,0.089-0.016,0.134-0.024c0.076-0.013,0.149-0.029,0.221-0.06
		c0.047-0.02,0.087-0.049,0.13-0.077c0.043-0.027,0.091-0.043,0.131-0.077c0.019-0.017,0.027-0.04,0.045-0.058
		c0.017-0.017,0.04-0.024,0.056-0.043L42,2.527l1.844,2.128c0.015,0.017,0.037,0.023,0.053,0.039
		c0.019,0.019,0.027,0.044,0.048,0.062c0.044,0.038,0.099,0.054,0.147,0.083c0.051,0.03,0.096,0.064,0.15,0.085
		c0.076,0.029,0.154,0.04,0.233,0.05C44.518,4.979,44.557,5,44.6,5c0.013,0,0.025-0.006,0.038-0.007
		c0.048-0.002,0.093-0.016,0.14-0.025c0.073-0.013,0.145-0.028,0.214-0.057c0.048-0.021,0.09-0.051,0.135-0.08
		c0.042-0.027,0.089-0.042,0.128-0.076c0.019-0.017,0.027-0.04,0.045-0.058c0.017-0.017,0.04-0.025,0.056-0.043l1.844-2.128
		l1.845,2.128c0.015,0.017,0.037,0.023,0.053,0.039c0.019,0.019,0.027,0.044,0.048,0.062c0.044,0.038,0.099,0.054,0.147,0.083
		c0.051,0.03,0.096,0.064,0.15,0.085c0.076,0.029,0.154,0.04,0.233,0.05C49.718,4.979,49.757,5,49.8,5
		c0.013,0,0.025-0.006,0.038-0.007c0.048-0.002,0.093-0.016,0.14-0.025c0.073-0.013,0.145-0.028,0.214-0.057
		c0.048-0.021,0.09-0.051,0.135-0.08c0.042-0.027,0.089-0.042,0.128-0.076c0.019-0.017,0.027-0.04,0.045-0.058
		c0.017-0.017,0.04-0.025,0.056-0.043l1.844-2.128l1.845,2.128c0.015,0.017,0.037,0.023,0.053,0.039
		c0.019,0.019,0.027,0.044,0.048,0.062c0.044,0.038,0.098,0.054,0.147,0.083c0.051,0.031,0.097,0.065,0.152,0.085
		c0.076,0.029,0.153,0.039,0.232,0.049C54.917,4.979,54.957,5,55,5c0.013,0,0.025-0.006,0.038-0.007
		c0.048-0.002,0.093-0.016,0.14-0.025c0.073-0.013,0.144-0.028,0.213-0.057c0.049-0.021,0.091-0.051,0.136-0.08
		c0.042-0.027,0.089-0.042,0.128-0.075c0.019-0.017,0.027-0.04,0.045-0.058c0.017-0.017,0.04-0.025,0.056-0.043L57.6,2.527
		l1.845,2.128c0.015,0.017,0.037,0.023,0.053,0.039c0.019,0.019,0.027,0.044,0.048,0.062c0.044,0.038,0.099,0.054,0.147,0.083
		c0.051,0.03,0.096,0.064,0.15,0.085c0.076,0.029,0.154,0.04,0.233,0.05C60.118,4.979,60.158,5,60.2,5
		c0.013,0,0.025-0.006,0.038-0.007c0.048-0.002,0.093-0.016,0.14-0.025c0.073-0.013,0.145-0.028,0.214-0.057
		c0.048-0.021,0.09-0.051,0.135-0.08c0.042-0.027,0.089-0.042,0.128-0.076c0.019-0.017,0.027-0.04,0.045-0.058
		c0.017-0.017,0.04-0.025,0.056-0.043L62.8,2.527l1.845,2.128c0.015,0.017,0.037,0.023,0.053,0.039
		c0.019,0.019,0.027,0.044,0.048,0.062c0.044,0.039,0.099,0.054,0.147,0.083c0.05,0.03,0.096,0.064,0.15,0.085
		c0.076,0.029,0.153,0.039,0.232,0.049C65.317,4.979,65.357,5,65.4,5c0.013,0,0.026-0.006,0.039-0.007
		c0.046-0.002,0.089-0.016,0.134-0.024c0.076-0.013,0.149-0.029,0.221-0.06c0.047-0.02,0.087-0.049,0.13-0.077
		c0.043-0.027,0.091-0.043,0.131-0.077c0.019-0.017,0.027-0.04,0.045-0.058c0.017-0.017,0.04-0.024,0.056-0.043l1.032-1.191
		c1.063,6.921,6.541,12.417,13.62,13.388C81.487,16.944,82,17.563,82,18.291V131.708z"/>
	<path class="st17" d="M69,63c-0.553,0-1,0.448-1,1v65.879c0,0.618-0.503,1.121-1.121,1.121H17.121
		c-0.618,0-1.121-0.503-1.121-1.121V64c0-0.552-0.447-1-1-1s-1,0.448-1,1v65.879C14,131.6,15.4,133,17.121,133h49.758
		C68.6,133,70,131.6,70,129.879V64C70,63.448,69.553,63,69,63z"/>
	<path class="st17" d="M15,55c0.553,0,1-0.448,1-1V20.121C16,19.503,16.503,19,17.121,19h49.758C67.497,19,68,19.503,68,20.121V54
		c0,0.552,0.447,1,1,1s1-0.448,1-1V20.121C70,18.4,68.6,17,66.879,17H17.121C15.4,17,14,18.4,14,20.121V54
		C14,54.552,14.447,55,15,55z"/>
	<path class="st17" d="M55,58c-0.553,0-1,0.448-1,1s0.447,1,1,1h5c0.553,0,1-0.448,1-1s-0.447-1-1-1H55z"/>
	<path class="st17" d="M34,59c0,0.552,0.447,1,1,1h5c0.553,0,1-0.448,1-1s-0.447-1-1-1h-5C34.447,58,34,58.448,34,59z"/>
	<path class="st17" d="M15,60h5c0.553,0,1-0.448,1-1s-0.447-1-1-1h-5c-0.553,0-1,0.448-1,1S14.447,60,15,60z"/>
	<path class="st17" d="M79,58h-4c-0.553,0-1,0.448-1,1s0.447,1,1,1h4c0.553,0,1-0.448,1-1S79.553,58,79,58z"/>
	<path class="st17" d="M70,58h-5c-0.553,0-1,0.448-1,1s0.447,1,1,1h5c0.553,0,1-0.448,1-1S70.553,58,70,58z"/>
	<path class="st17" d="M31,59c0-0.552-0.447-1-1-1h-5c-0.553,0-1,0.448-1,1s0.447,1,1,1h5C30.553,60,31,59.552,31,59z"/>
	<path class="st17" d="M10,58H5c-0.553,0-1,0.448-1,1s0.447,1,1,1h5c0.553,0,1-0.448,1-1S10.553,58,10,58z"/>
	<path class="st17" d="M51,59c0-0.552-0.447-1-1-1h-5c-0.553,0-1,0.448-1,1s0.447,1,1,1h5C50.553,60,51,59.552,51,59z"/>
	<path class="st17" d="M46.242,109.97c0.536-0.134,0.862-0.677,0.728-1.212c-0.134-0.536-0.677-0.864-1.212-0.728l-8,2
		c-0.04,0.01-0.069,0.036-0.107,0.051c-0.074,0.028-0.146,0.056-0.211,0.1c-0.049,0.033-0.086,0.075-0.128,0.116
		c-0.049,0.048-0.097,0.093-0.136,0.151c-0.039,0.058-0.062,0.122-0.089,0.188c-0.017,0.043-0.047,0.077-0.058,0.123
		c-0.004,0.014,0.001,0.028-0.002,0.042c-0.014,0.065-0.009,0.132-0.009,0.2s-0.004,0.135,0.009,0.2
		c0.003,0.014-0.002,0.028,0.002,0.042c0.016,0.065,0.05,0.119,0.078,0.178c0.017,0.037,0.027,0.076,0.048,0.11
		c0.065,0.103,0.144,0.194,0.239,0.265c0.011,0.008,0.025,0.012,0.037,0.02c0.089,0.062,0.187,0.109,0.293,0.139
		c0.012,0.004,0.021,0.013,0.033,0.016l8,2c0.081,0.021,0.163,0.03,0.243,0.03c0.448,0,0.855-0.303,0.969-0.758
		c0.135-0.535-0.191-1.078-0.728-1.212L46,111.97v-1.939L46.242,109.97z M44,111.47L42.121,111l1.879-0.47V111.47z"/>
	<path class="st17" d="M46.972,105.862c-0.004-0.026,0.004-0.05-0.001-0.076c-0.009-0.041-0.028-0.077-0.038-0.117
		c-0.009-0.026-0.014-0.052-0.025-0.077c-0.564-2.09-2.587-3.591-4.911-3.591c-2.329,0-4.354,1.507-4.913,3.602
		c-0.005,0.011-0.007,0.023-0.011,0.035c-0.014,0.053-0.038,0.102-0.05,0.156c-0.007,0.034,0.002,0.065-0.001,0.099
		C37.018,105.93,37,105.962,37,106c0,0.033,0.016,0.06,0.019,0.092c0.006,0.073,0.021,0.14,0.042,0.208
		c0.017,0.053,0.035,0.103,0.06,0.152c0.035,0.069,0.077,0.129,0.127,0.188c0.031,0.037,0.062,0.071,0.098,0.103
		c0.061,0.054,0.127,0.097,0.201,0.135c0.042,0.022,0.083,0.041,0.128,0.056c0.039,0.014,0.07,0.04,0.112,0.049
		c0.072,0.016,0.145,0.023,0.215,0.023c0.014,0,0.026-0.006,0.04-0.007H46c0.037,0,0.069-0.017,0.105-0.021
		c0.036-0.004,0.069,0.006,0.105-0.001c0.031-0.007,0.053-0.027,0.083-0.036c0.071-0.022,0.135-0.051,0.198-0.088
		c0.047-0.028,0.091-0.055,0.133-0.089c0.06-0.049,0.11-0.104,0.158-0.166c0.029-0.038,0.056-0.075,0.079-0.118
		c0.039-0.07,0.066-0.143,0.088-0.222c0.013-0.047,0.023-0.093,0.029-0.142C46.981,106.076,47,106.041,47,106
		C47,105.951,46.979,105.909,46.972,105.862z M41.997,104c0.94,0,1.796,0.386,2.367,1H39.63C40.2,104.387,41.056,104,41.997,104z"/>
	<path class="st17" d="M47,96c0-0.553-0.447-1-1-1h-8c-0.464,0-0.866,0.319-0.974,0.771c-0.106,0.451,0.111,0.917,0.526,1.124
		L39.764,98l-2.211,1.105c-0.415,0.207-0.633,0.673-0.526,1.124C37.134,100.681,37.536,101,38,101h8c0.553,0,1-0.447,1-1
		s-0.447-1-1-1h-3.764l0.211-0.105C42.786,98.725,43,98.379,43,98s-0.214-0.725-0.553-0.895L42.236,97H46C46.553,97,47,96.553,47,96
		z"/>
	<path class="st17" d="M46,92h-8c-0.553,0-1,0.447-1,1s0.447,1,1,1h8c0.553,0,1-0.447,1-1S46.553,92,46,92z"/>
	<path class="st17" d="M46,87h-7v-1c0-0.553-0.447-1-1-1s-1,0.447-1,1v4c0,0.553,0.447,1,1,1s1-0.447,1-1v-1h7c0.553,0,1-0.447,1-1
		S46.553,87,46,87z"/>
	<path class="st17" d="M47,77c0-0.553-0.447-1-1-1s-1,0.447-1,1v1h-7c-0.404,0-0.77,0.243-0.924,0.617
		c-0.155,0.374-0.069,0.804,0.217,1.09l2,2C39.488,81.903,39.744,82,40,82s0.512-0.098,0.707-0.293c0.391-0.391,0.391-1.023,0-1.414
		L40.414,80H45v1c0,0.553,0.447,1,1,1s1-0.447,1-1V77z"/>
	<path class="st17" d="M53,74c-0.553,0-1,0.448-1,1v41c0,0.553,0.447,1,1,1s1-0.447,1-1V75C54,74.448,53.553,74,53,74z"/>
	<path class="st17" d="M31,117c0.553,0,1-0.447,1-1V75c0-0.552-0.447-1-1-1s-1,0.448-1,1v41C30,116.553,30.447,117,31,117z"/>
	<path class="st17" d="M32.825,37.117c-0.118-0.356-0.427-0.615-0.798-0.672l-2.59-0.394l-1.168-2.477
		C28.104,33.224,27.752,33,27.365,33c-0.388,0-0.739,0.224-0.904,0.574l-1.167,2.477l-2.59,0.394
		c-0.371,0.057-0.68,0.316-0.798,0.672c-0.119,0.356-0.028,0.749,0.233,1.017l1.902,1.941l-0.452,2.753
		c-0.062,0.377,0.098,0.757,0.41,0.979c0.314,0.221,0.726,0.245,1.06,0.059l2.306-1.27l2.307,1.27
		c0.151,0.083,0.316,0.124,0.482,0.124c0.203,0,0.405-0.062,0.577-0.183c0.312-0.221,0.472-0.601,0.41-0.979l-0.452-2.753
		l1.902-1.941C32.854,37.865,32.944,37.473,32.825,37.117z M28.906,39.037c-0.223,0.228-0.323,0.547-0.272,0.861l0.201,1.223
		l-0.987-0.543c-0.15-0.083-0.316-0.124-0.482-0.124s-0.332,0.042-0.482,0.124l-0.986,0.543l0.201-1.223
		c0.051-0.314-0.05-0.634-0.272-0.861l-0.891-0.909l1.188-0.181c0.329-0.05,0.612-0.261,0.754-0.562l0.489-1.039l0.49,1.039
		c0.142,0.301,0.425,0.512,0.754,0.562l1.188,0.181L28.906,39.037z"/>
	<path class="st17" d="M47.449,37.117c-0.118-0.356-0.427-0.615-0.798-0.672l-2.59-0.394l-1.168-2.477
		C42.729,33.224,42.376,33,41.989,33c-0.388,0-0.739,0.224-0.904,0.574l-1.167,2.477l-2.59,0.394
		c-0.371,0.057-0.679,0.316-0.798,0.672s-0.029,0.749,0.233,1.017l1.901,1.941l-0.451,2.753c-0.062,0.378,0.098,0.758,0.41,0.979
		c0.314,0.221,0.726,0.245,1.06,0.059l2.306-1.27l2.306,1.27c0.15,0.083,0.316,0.124,0.482,0.124c0.203,0,0.404-0.062,0.577-0.183
		c0.312-0.221,0.472-0.601,0.41-0.979l-0.451-2.753l1.902-1.941C47.478,37.865,47.568,37.473,47.449,37.117z M43.53,39.037
		c-0.223,0.228-0.323,0.547-0.272,0.861l0.2,1.223l-0.986-0.543c-0.15-0.083-0.316-0.124-0.482-0.124s-0.332,0.042-0.482,0.124
		l-0.986,0.543l0.2-1.223c0.051-0.314-0.05-0.634-0.272-0.861l-0.89-0.909l1.188-0.181c0.329-0.05,0.612-0.261,0.754-0.562
		l0.489-1.039l0.49,1.039c0.142,0.301,0.425,0.512,0.754,0.562l1.188,0.181L43.53,39.037z"/>
	<path class="st17" d="M62.073,37.117c-0.118-0.356-0.427-0.615-0.798-0.672l-2.59-0.394l-1.168-2.477
		C57.353,33.224,57,33,56.613,33c-0.388,0-0.739,0.224-0.904,0.574l-1.167,2.477l-2.59,0.394c-0.371,0.057-0.679,0.316-0.798,0.672
		s-0.028,0.749,0.233,1.017l1.901,1.941l-0.451,2.753c-0.062,0.378,0.098,0.758,0.41,0.979c0.314,0.221,0.726,0.245,1.06,0.059
		l2.306-1.27l2.306,1.27c0.15,0.083,0.316,0.124,0.482,0.124c0.203,0,0.404-0.062,0.577-0.183c0.312-0.221,0.472-0.601,0.41-0.979
		l-0.451-2.753l1.902-1.941C62.102,37.865,62.192,37.473,62.073,37.117z M58.154,39.037c-0.223,0.228-0.323,0.547-0.272,0.861
		l0.2,1.223l-0.986-0.543c-0.15-0.083-0.316-0.124-0.482-0.124s-0.332,0.042-0.482,0.124l-0.986,0.543l0.2-1.223
		c0.051-0.314-0.05-0.634-0.272-0.861l-0.89-0.909l1.188-0.181c0.329-0.05,0.612-0.261,0.754-0.562l0.489-1.039l0.49,1.039
		c0.142,0.301,0.425,0.512,0.754,0.562l1.188,0.181L58.154,39.037z"/>
</g>
</svg>
