<svg xmlns="http://www.w3.org/2000/svg" xmlns:xlink="http://www.w3.org/1999/xlink" width="500" height="500" version="1.1" fill="#000000"><rect id="backgroundrect" width="100%" height="100%" x="0" y="0" fill="none" stroke="none"/>
  
<g class="currentLayer" style=""><title>Layer 1</title><g id="surface4044" class="selected" fill="#ffffff" fill-opacity="1">
    <path style="stroke: none; fill-rule: nonzero;" d="M 378.75 20 C 376.523438 20.234375 374.414062 21.25 372.8125 22.8125 L 250 145.625 L 177.1875 72.8125 C 173.203125 68.828125 166.796875 68.828125 162.8125 72.8125 C 158.828125 76.796875 158.828125 83.203125 162.8125 87.1875 L 225.625 150 L 60 150 C 26.992188 150 0 176.992188 0 210 L 0 440 C 0 473.007812 26.992188 500 60 500 L 440 500 C 473.007812 500 500 473.007812 500 440 L 500 210 C 500 176.992188 473.007812 150 440 150 L 274.375 150 L 387.1875 37.1875 C 390.429688 34.179688 391.289062 29.414062 389.335938 25.46875 C 387.421875 21.484375 383.085938 19.296875 378.75 20 Z M 60 170 L 248.125 170 C 249.375 170.234375 250.625 170.234375 251.875 170 L 440 170 C 462.1875 170 480 187.8125 480 210 L 480 440 C 480 462.1875 462.1875 480 440 480 L 60 480 C 37.8125 480 20 462.1875 20 440 L 20 210 C 20 187.8125 37.8125 170 60 170 Z M 205 180 C 133.085938 180 90.585938 179.023438 62.8125 199.375 C 48.945312 209.53125 40.507812 225 35.9375 245.3125 C 31.367188 265.625 30 291.367188 30 325 C 30 358.671875 31.367188 384.375 35.9375 404.6875 C 40.507812 425 48.945312 440.46875 62.8125 450.625 C 90.585938 470.976562 133.085938 470 205 470 C 276.5625 470 319.296875 471.132812 347.1875 450.9375 C 361.132812 440.859375 369.453125 425.390625 374.0625 405 C 378.671875 384.609375 380 358.945312 380 325 C 380 291.09375 378.867188 265.351562 374.375 245 C 369.882812 224.648438 361.367188 209.179688 347.5 199.0625 C 319.765625 178.828125 277.265625 180 205 180 Z M 205 200 C 277.265625 200 317.304688 201.40625 335.9375 215 C 345.273438 221.796875 350.820312 231.796875 354.6875 249.375 C 358.554688 266.953125 360 291.601562 360 325 C 360 358.398438 358.671875 383.085938 354.6875 400.625 C 350.703125 418.164062 344.726562 428.164062 335.3125 435 C 316.484375 448.632812 276.5625 450 205 450 C 133.164062 450 93.164062 448.125 74.375 434.375 C 64.960938 427.5 59.21875 417.8125 55.3125 400.3125 C 51.40625 382.8125 50 358.125 50 325 C 50 291.875 51.40625 267.1875 55.3125 249.6875 C 59.21875 232.1875 64.960938 222.5 74.375 215.625 C 93.164062 201.835938 133.164062 200 205 200 Z M 430 260 C 418.945312 260 410 268.945312 410 280 C 410 291.054688 418.945312 300 430 300 C 441.054688 300 450 291.054688 450 280 C 450 268.945312 441.054688 260 430 260 Z M 430 350 C 418.945312 350 410 358.945312 410 370 C 410 381.054688 418.945312 390 430 390 C 441.054688 390 450 381.054688 450 370 C 450 358.945312 441.054688 350 430 350 Z M 430 350 " id="svg_1" fill="#ffffff" fill-opacity="1"/>
  </g></g></svg>